PathFileType	4	(X/Y/Z)	/Users/itak/Documents/Research/Walk-IL/dataset/trc/00038_00004.trc
DataRate	CameraRate	NumFrames	NumMarkers	Units	OrigDataRate	OrigDataStartFrame	OrigNumFrames
100.000000	100.000000	4	53	mm	100.000000	65	524
Frame#	Time	RPSI			LPSI			L3			STRN			T10			C7			CLAV			RBAK			LBAK			LSHO			LUPA			LAEL			LAOL			LWTS			LWPS			LFRA			LIFD			LHPS			LHTS			RSHO			RUPA			RAEL			RAOL			RWTS			RWPS			RFRA			RIFD			RHTS			RHPS			RBHD			LFHD			RFHD			LBHD			LHIP			RHIP			RASI			LASI			LKNE			LTHI			LANK			LTIP			LTOE			LMT1			LMT5			LHEE			RKNE			RTHI			RANK			RTIP			RTOE			RMT1			RMT5			RHEE			
		X1	Y1	Z1	X2	Y2	Z2	X3	Y3	Z3	X4	Y4	Z4	X5	Y5	Z5	X6	Y6	Z6	X7	Y7	Z7	X8	Y8	Z8	X9	Y9	Z9	X10	Y10	Z10	X11	Y11	Z11	X12	Y12	Z12	X13	Y13	Z13	X14	Y14	Z14	X15	Y15	Z15	X16	Y16	Z16	X17	Y17	Z17	X18	Y18	Z18	X19	Y19	Z19	X20	Y20	Z20	X21	Y21	Z21	X22	Y22	Z22	X23	Y23	Z23	X24	Y24	Z24	X25	Y25	Z25	X26	Y26	Z26	X27	Y27	Z27	X28	Y28	Z28	X29	Y29	Z29	X30	Y30	Z30	X31	Y31	Z31	X32	Y32	Z32	X33	Y33	Z33	X34	Y34	Z34	X35	Y35	Z35	X36	Y36	Z36	X37	Y37	Z37	X38	Y38	Z38	X39	Y39	Z39	X40	Y40	Z40	X41	Y41	Z41	X42	Y42	Z42	X43	Y43	Z43	X44	Y44	Z44	X45	Y45	Z45	X46	Y46	Z46	X47	Y47	Z47	X48	Y48	Z48	X49	Y49	Z49	X50	Y50	Z50	X51	Y51	Z51	X52	Y52	Z52	X53	Y53	Z53	

66	0.65	-1221.800048828125	1079.049560546875	122.1788787841797	-1231.07275390625	1066.429321289062	-41.68400192260742	-1233.008178710938	1127.366943359375	30.1421947479248	-1018.735961914062	1326.66259765625	28.95355224609375	-1265.102783203125	1270.58642578125	22.94877433776855	-1223.384155273438	1539.646118164062	8.682269096374512	-1063.487182617188	1451.633544921875	21.62795257568359	-1274.8974609375	1402.410400390625	89.04507446289062	-1237.640502929688	1496.21240234375	-88.96755218505859	-1133.24951171875	1505.298706054688	-160.6564025878906	-1154.6650390625	1375.043823242188	-234.2657623291016	-1138.26708984375	1155.554931640625	-252.9474487304688	-1191.920043945312	1142.440185546875	-161.9184875488281	-1042.62060546875	906.170166015625	-194.2080230712891	-1119.247192382812	889.8690795898438	-235.8763427734375	-1121.484619140625	1040.461791992188	-256.4092102050781	-1009.841125488281	724.7527465820312	-169.6898651123047	-1083.944702148438	800.445556640625	-233.4262084960938	-1019.645263671875	812.5355224609375	-204.3413238525391	-1155.486206054688	1529.247924804688	187.9613952636719	-1170.591430664062	1458.045532226562	258.6318359375	-1195.880859375	1187.165649414062	279.6529846191406	-1188.897094726562	1160.537963867188	182.9364471435547	-1059.348754882812	930.5498046875	257.15380859375	-1126.762329101562	915.0134887695312	318.0485534667969	-1181.599975585938	1111.649169921875	295.5389404296875	-1042.164794921875	750.9055786132812	238.7448425292969	-1024.102416992188	822.8739013671875	274.7463989257812	-1083.203857421875	816.9718017578125	321.3045654296875	-1180.00634765625	1726.454223632812	-42.58934783935547	-986.12353515625	1738.600219726562	57.51413726806641	-999.0789794921875	1739.98388671875	-39.78061676025391	-1155.48388671875	1722.007080078125	100.1816787719727	-1136.525146484375	962.1988525390625	-152.6158447265625	-1106.340698242188	965.3560180664062	219.4038543701172	-1005.889038085938	1000.243530273438	142.5072784423828	-1019.617065429688	1011.687622070312	-91.77155303955078	-1096.5673828125	518.4252319335938	-94.56355285644531	-1118.024291992188	654.2631225585938	-133.1277160644531	-1191.336181640625	42.5175666809082	-85.12702941894531	-1176.584838867188	288.0420532226562	-108.2672500610352	-974.9398803710938	41.23163223266602	-14.84811496734619	-1034.018920898438	49.89371490478516	0.2004126757383347	-1067.219482421875	41.50592041015625	-101.6808090209961	-1261.498413085938	50.60258865356445	-34.32356643676758	-1097.6357421875	528.964111328125	173.5843811035156	-1080.20263671875	797.3085327148438	217.4199829101562	-1207.27978515625	47.15043258666992	152.3898315429688	-1122.353271484375	406.7297668457031	173.4584197998047	-975.1961059570312	44.88760757446289	113.9394378662109	-1036.727783203125	52.34773635864258	82.87007141113281	-1057.758178710938	44.80466842651367	177.0628662109375	-1260.463989257812	47.05935287475586	106.6628112792969	
67	0.66	-1221.74462890625	1079.065795898438	122.0444793701172	-1230.90234375	1066.400146484375	-41.82273101806641	-1232.9033203125	1127.372802734375	29.99926567077637	-1018.650634765625	1326.640380859375	28.85227012634277	-1264.989379882812	1270.606811523438	22.67573356628418	-1223.161743164062	1539.606689453125	8.355755805969238	-1063.359375	1451.560913085938	21.42528533935547	-1274.779296875	1402.456787109375	88.74512481689453	-1237.397216796875	1496.1845703125	-89.31198120117188	-1132.951416015625	1505.199340820312	-160.9261016845703	-1154.35009765625	1374.929443359375	-234.5112457275391	-1138.00732421875	1155.451416015625	-253.1287689208984	-1191.799682617188	1142.364501953125	-162.1358795166016	-1042.664672851562	905.940185546875	-194.3116302490234	-1119.272094726562	889.7445068359375	-236.0534210205078	-1121.275146484375	1040.34423828125	-256.5628967285156	-1009.921508789062	724.53173828125	-169.8148345947266	-1084.05029296875	800.2882080078125	-233.5526733398438	-1019.698608398438	812.3758544921875	-204.3708190917969	-1155.434692382812	1529.303833007812	187.6679840087891	-1170.6220703125	1458.151611328125	258.3531799316406	-1195.974609375	1187.281127929688	279.4385375976562	-1188.904418945312	1160.624755859375	182.7374877929688	-1059.45361328125	930.6358642578125	257.044921875	-1126.913696289062	915.116455078125	317.9208679199219	-1181.705932617188	1111.758178710938	295.3536987304688	-1042.204956054688	751.1622314453125	238.6398315429688	-1024.179565429688	822.9749755859375	274.7033996582031	-1083.403198242188	817.0121459960938	321.2230834960938	-1179.293823242188	1726.4814453125	-43.57160949707031	-986.0927124023438	1738.4833984375	57.9624137878418	-998.2930908203125	1739.765014648438	-39.44311904907227	-1155.731567382812	1722.112548828125	99.40718078613281	-1136.309814453125	962.1708374023438	-152.7002563476562	-1106.387817382812	965.3715209960938	219.3461151123047	-1005.827270507812	1000.270263671875	142.5530548095703	-1019.354797363281	1011.646667480469	-91.75820159912109	-1096.466064453125	518.404541015625	-94.54752349853516	-1117.880126953125	654.2390747070312	-133.1196746826172	-1191.3388671875	42.52275466918945	-85.12269592285156	-1176.546264648438	288.0320129394531	-108.2806854248047	-974.92236328125	41.21227264404297	-14.83731746673584	-1034.011108398438	49.8770637512207	0.2225496619939804	-1067.21875	41.50565719604492	-101.6805419921875	-1261.504272460938	50.60001373291016	-34.32567596435547	-1097.630126953125	528.96630859375	173.5931549072266	-1080.179565429688	797.333251953125	217.383056640625	-1207.273803710938	47.1564826965332	152.3815460205078	-1122.362426757812	406.7330627441406	173.4297790527344	-975.2361450195312	44.86873245239258	113.9647750854492	-1036.73095703125	52.3443603515625	82.87590789794922	-1057.781127929688	44.80221557617188	177.0424652099609	-1260.455810546875	47.07239151000977	106.6547164916992	
68	0.67	-1221.672485351562	1079.077270507812	121.9189224243164	-1230.70068359375	1066.369995117188	-41.94931030273438	-1232.786376953125	1127.374145507812	29.86194229125977	-1018.586791992188	1326.620239257812	28.7714958190918	-1264.882202148438	1270.615112304688	22.40987014770508	-1222.936401367188	1539.562622070312	8.042540550231934	-1063.2294921875	1451.494262695312	21.23263359069824	-1274.67236328125	1402.490234375	88.45484924316406	-1237.168334960938	1496.148681640625	-89.64825439453125	-1132.666259765625	1505.099609375	-161.1840667724609	-1154.064697265625	1374.810668945312	-234.7513122558594	-1137.754150390625	1155.34619140625	-253.3004913330078	-1191.695068359375	1142.280639648438	-162.3527526855469	-1042.682983398438	905.7276611328125	-194.4053955078125	-1119.260131835938	889.6187744140625	-236.2183380126953	-1121.074462890625	1040.22607421875	-256.7178955078125	-1009.985656738281	724.3116455078125	-169.9169311523438	-1084.114990234375	800.1395874023438	-233.6737213134766	-1019.694519042969	812.24755859375	-204.4053039550781	-1155.376831054688	1529.348266601562	187.3888244628906	-1170.648559570312	1458.249633789062	258.0936584472656	-1196.069702148438	1187.384887695312	279.2293395996094	-1188.90087890625	1160.7041015625	182.5503692626953	-1059.563720703125	930.7154541015625	256.9529418945312	-1127.081420898438	915.2116088867188	317.78955078125	-1181.820434570312	1111.85791015625	295.1693420410156	-1042.2294921875	751.435791015625	238.5339508056641	-1024.215087890625	823.0899047851562	274.6724548339844	-1083.559326171875	817.0487670898438	321.1497192382812	-1178.591796875	1726.4921875	-44.4911003112793	-986.0721435546875	1738.36767578125	58.37607574462891	-997.5665893554688	1739.550537109375	-39.13425827026367	-1155.959716796875	1722.214111328125	98.66932678222656	-1136.066040039062	962.1436157226562	-152.7698364257812	-1106.427368164062	965.3798828125	219.2958831787109	-1005.753723144531	1000.288024902344	142.6121215820312	-1019.076782226562	1011.605163574219	-91.73307800292969	-1096.364868164062	518.3847045898438	-94.52739715576172	-1117.749267578125	654.216796875	-133.1142730712891	-1191.34130859375	42.52997589111328	-85.11672210693359	-1176.50732421875	288.0245666503906	-108.2923736572266	-974.90478515625	41.19263458251953	-14.82549285888672	-1034.0029296875	49.86184310913086	0.2434858232736588	-1067.21630859375	41.50394821166992	-101.6793823242188	-1261.510986328125	50.59652328491211	-34.32665634155273	-1097.629760742188	528.9656372070312	173.6014556884766	-1080.154907226562	797.3529052734375	217.3511352539062	-1207.268798828125	47.160888671875	152.3730621337891	-1122.378540039062	406.7398986816406	173.4084014892578	-975.2491455078125	44.86244964599609	113.9787368774414	-1036.73291015625	52.34177398681641	82.88042449951172	-1057.783325195312	44.81058120727539	177.0145111083984	-1260.447631835938	47.08249664306641	106.6465530395508	
69	0.68	-1221.583862304688	1079.084716796875	121.8041610717773	-1230.473388671875	1066.339233398438	-42.06168365478516	-1232.65576171875	1127.372680664062	29.73190879821777	-1018.539001464844	1326.602294921875	28.70805740356445	-1264.777709960938	1270.611206054688	22.15158271789551	-1222.712036132812	1539.518798828125	7.738373279571533	-1063.103393554688	1451.434448242188	21.05267524719238	-1274.574584960938	1402.511596679688	88.17231750488281	-1236.9521484375	1496.10498046875	-89.97406768798828	-1132.391235351562	1505	-161.4293823242188	-1153.807861328125	1374.687744140625	-234.9832153320312	-1137.508422851562	1155.2373046875	-253.463134765625	-1191.595947265625	1142.189819335938	-162.5665283203125	-1042.670166015625	905.5364379882812	-194.4899291992188	-1119.208129882812	889.4912109375	-236.3664703369141	-1120.889526367188	1040.105346679688	-256.8739929199219	-1010.028381347656	724.0972900390625	-170.0010223388672	-1084.137329101562	799.9986572265625	-233.7886810302734	-1019.640319824219	812.142578125	-204.4454498291016	-1155.320922851562	1529.383544921875	187.1264495849609	-1170.672973632812	1458.338134765625	257.8520812988281	-1196.168823242188	1187.475219726562	279.0231018066406	-1188.887084960938	1160.775024414062	182.3729095458984	-1059.6806640625	930.7869873046875	256.8795776367188	-1127.264526367188	915.298583984375	317.6556396484375	-1181.944702148438	1111.947875976562	294.9841613769531	-1042.237548828125	751.7225952148438	238.4295501708984	-1024.21484375	823.21728515625	274.654296875	-1083.677612304688	817.0836791992188	321.0856323242188	-1177.903076171875	1726.4853515625	-45.34685134887695	-986.0632934570312	1738.2548828125	58.75278854370117	-996.9061279296875	1739.345581054688	-38.85816955566406	-1156.1748046875	1722.31787109375	97.97006988525391	-1135.796630859375	962.1166381835938	-152.822998046875	-1106.4560546875	965.3816528320312	219.2564849853516	-1005.668762207031	1000.298583984375	142.6826019287109	-1018.793334960938	1011.563232421875	-91.69676971435547	-1096.263305664062	518.366455078125	-94.50414276123047	-1117.62890625	654.1964111328125	-133.1128234863281	-1191.342895507812	42.53782653808594	-85.11035919189453	-1176.46630859375	288.0182800292969	-108.3033142089844	-974.8882446289062	41.17414474487305	-14.81292724609375	-1033.994995117188	49.84968566894531	0.2611911296844482	-1067.21240234375	41.50085067749023	-101.6776351928711	-1261.517944335938	50.59297180175781	-34.32654571533203	-1097.6318359375	528.9619140625	173.6109924316406	-1080.133056640625	797.3650512695312	217.329345703125	-1207.265502929688	47.16431427001953	152.3642730712891	-1122.3955078125	406.7488403320312	173.3957214355469	-975.2499389648438	44.86146545410156	113.9880905151367	-1036.734008789062	52.34022521972656	82.88330841064453	-1057.77392578125	44.82343673706055	176.9862518310547	-1260.439697265625	47.08927917480469	106.6394729614258	
